<?xml version="1.0" encoding="utf-8"?>
<!-- Generator: Adobe Illustrator 23.0.1, SVG Export Plug-In . SVG Version: 6.00 Build 0)  -->
<svg version="1.1" id="Capa_1" xmlns="http://www.w3.org/2000/svg" xmlns:xlink="http://www.w3.org/1999/xlink" x="0px" y="0px"
	 viewBox="0 0 400 200" style="enable-background:new 0 0 400 200;" xml:space="preserve">
<style type="text/css">
	.st0{fill:url(#SVGID_1_);}
</style>
<g>
	<path d="M24.14,97.76l27.96-14.4v4.16L28.54,99.33v0.12l23.56,11.81v4.16l-27.96-14.4V97.76z M96.22,70.1v15.88H66.8h-2.94v26.48
		v2.94h32.37h2.94V70.1H96.22z M96.22,112.47H66.8V88.93h29.42V112.47z M135.77,85.9l-30.72,25.84V85.99h-2.94v29.42h2.94
		l35.07-29.51H135.77z M178.61,88.93v-2.94H143.3v2.94l0.03,6.71v2.94l32.29,6.53l0.03,7.36H143.3v2.94h32.37h2.94l-0.06-9.71v-2.94
		l-32.29-6.53l-0.02-7.3H178.61z M205.1,85.99v2.94h32.37v8.83h-23.54v2.94h23.54v11.77H205.1v2.94h32.37h2.94V88.93v-2.94H205.1z
		 M246.29,95.82v-6.88h30.37v-2.94h-33.31v2.94v26.48h2.94h32.37v-2.94v-11.74L246.29,95.82z M246.29,112.47V98.76l29.42,3.83v9.89
		H246.29z M281.6,85.99v2.94v23.54v2.94h32.37h2.94V88.93v-2.94H281.6z M313.97,112.47h-29.42V88.93h25.12l-25.12,23.54l4.59-0.03
		l24.83-23.51V112.47z M328.83,83.36v4.16l23.74,11.81v0.12l-23.74,11.81v4.16l27.96-14.34V97.7L328.83,83.36z"/>
	<g>
		<path d="M291.85,185.67c-38.64,0.62-72.99-24.96-83.53-62.22l9.62-2.74c9.31,32.89,39.63,55.47,73.74,54.92
			c41.56-0.67,74.83-35.14,74.16-76.84c-0.67-41.7-35.04-75.08-76.6-74.41c-34.11,0.55-63.69,24.1-71.93,57.27l-9.71-2.43
			c9.34-37.58,42.84-64.26,81.48-64.88c47.08-0.76,86,37.05,86.76,84.28S338.93,184.91,291.85,185.67z"/>
	</g>
	<g>
		<radialGradient id="SVGID_1_" cx="226.1168" cy="43.8942" r="168.5026" gradientUnits="userSpaceOnUse">
			<stop  offset="0" style="stop-color:#9E005D"/>
			<stop  offset="0.1437" style="stop-color:#98015D"/>
			<stop  offset="0.3319" style="stop-color:#88035E"/>
			<stop  offset="0.5446" style="stop-color:#6D0860"/>
			<stop  offset="0.7737" style="stop-color:#470D62"/>
			<stop  offset="1" style="stop-color:#1B1464"/>
		</radialGradient>
		<path class="st0" d="M288.88,185.01c-38.62,0-72.53-26.04-82.47-63.31l9.66-2.58c8.77,32.91,38.71,55.89,72.81,55.89
			c41.55,0,75.35-33.8,75.35-75.35s-33.8-75.35-75.35-75.35c-34.1,0-64.04,22.98-72.81,55.89l-9.66-2.58
			c9.94-37.28,43.85-63.31,82.47-63.31c47.06,0,85.35,38.29,85.35,85.35S335.94,185.01,288.88,185.01z"/>
	</g>
</g>
</svg>
